G04 DipTrace Beta 2.3.5.2*
%INUSBtoRS485converter.GTL*%
%MOMM*%
%ADD13C,0.3*%
%ADD14C,0.4*%
%ADD15C,0.5*%
%ADD17R,1.0X1.1*%
%ADD18R,1.1X1.0*%
%ADD19R,1.8X1.6*%
%ADD20R,1.3X1.5*%
%ADD21R,1.62X1.62*%
%ADD22C,1.62*%
%ADD23R,2.3X2.3*%
%ADD24C,2.3*%
%ADD25R,1.7X1.7*%
%ADD26C,1.7*%
%ADD27C,1.5*%
%ADD28C,4.0*%
%ADD29C,2.5*%
%ADD30R,1.35X0.4*%
%ADD31R,1.4X1.6*%
%ADD32R,1.3X2.3*%
%ADD33R,1.9X1.7*%
%ADD34R,1.35X1.0*%
%ADD35R,0.6X2.0*%
%ADD36R,0.4X1.8*%
%ADD37C,0.914*%
%FSLAX53Y53*%
G04*
G71*
G90*
G75*
G01*
%LNTop*%
%LPD*%
X1389Y8763D2*
D13*
Y11313D1*
Y13713D1*
Y16263D1*
X3839Y15713D2*
X1939D1*
X1389Y16263D1*
X3839Y9313D2*
X1939D1*
X1389Y8763D1*
X4064Y11213D2*
Y9538D1*
X3839Y9313D1*
Y8798D1*
X4858Y7780D1*
X7034D1*
X7081Y7826D1*
X6922Y5557D2*
Y7668D1*
X7081Y7826D1*
X9303Y19903D2*
X7250D1*
X7081Y19734D1*
Y17577D2*
Y18636D1*
Y19734D1*
Y17577D2*
X8285D1*
X9191Y16671D1*
X13386Y5660D2*
Y7099D1*
X13749Y7462D1*
X14701D1*
X1365Y6668D2*
Y8739D1*
X1389Y8763D1*
X12736Y12860D2*
Y10736D1*
X11685Y9685D1*
X9780D1*
X7874Y7780D1*
X7127D1*
X7081Y7826D1*
X16447Y17147D2*
X17559D1*
X23751Y8573D2*
X20417D1*
X19145Y9846D1*
Y15561D1*
X17559Y17147D1*
X7081Y9526D2*
Y11431D1*
X4064Y12513D2*
X5205D1*
X6287Y11431D1*
X7081D1*
X4064Y13163D2*
X5478D1*
X6128Y13813D1*
X7081D1*
Y15877D1*
X8781Y13813D2*
Y14765D1*
X8351D1*
X8509Y14924D1*
X10786Y7408D2*
Y5660D1*
X8781Y11431D2*
X10256D1*
X10732Y11908D1*
Y12806D1*
X10786Y12860D1*
X4064Y13813D2*
D14*
X4699D1*
X5334Y14448D1*
Y16988D1*
X4064Y18258D1*
X3588D1*
Y19758D2*
X4135D1*
X5810Y21434D1*
X7081D1*
X8350Y22703D1*
X9303D1*
X10891Y16671D2*
X12161D1*
X12637Y17147D1*
X11526Y26514D2*
Y26038D1*
X9303Y23815D1*
Y22703D1*
X9462D1*
X10891Y21275D1*
Y16671D1*
X12736Y5660D2*
Y7719D1*
X13749Y8732D1*
X10891Y17941D2*
Y16671D1*
X16765Y14719D2*
X17605D1*
X18194Y14130D1*
Y11431D1*
X17559Y10796D1*
X14543D1*
X14336Y11003D1*
X14036Y11303D1*
Y12860D1*
X6758Y2858D2*
X9308D1*
X8509D1*
Y5444D1*
X8622Y5557D1*
X11436Y5660D2*
X12086D1*
Y8753D1*
X12608Y9275D1*
X14336Y11003D1*
X8622Y5557D2*
Y7257D1*
X10118Y8753D1*
X12086D1*
X11890Y14924D2*
X10573D1*
X12608Y9208D2*
Y9275D1*
X13907Y17147D2*
D13*
Y15241D1*
X13590Y14924D1*
X13386Y12860D2*
Y14720D1*
X13590Y14924D1*
X13431Y2858D2*
X11208D1*
X4858D2*
X2635D1*
X15336Y12860D2*
Y15083D1*
X15178Y15242D1*
Y17146D1*
X15177Y17147D1*
X16765Y13019D2*
X15336D1*
Y12860D1*
X14066Y26514D2*
D15*
X18346D1*
X18505Y26355D1*
X27720Y24291D2*
Y26831D1*
Y24291D2*
X19782D1*
X18988Y25085D1*
Y25872D1*
X18505Y26355D1*
X23751Y16193D2*
Y24291D1*
X27720D1*
X11436Y12860D2*
D13*
Y11045D1*
X11526Y10955D1*
X3905Y4604D2*
X2682D1*
X2635Y4558D1*
X15131Y2858D2*
Y3222D1*
X14036Y4317D1*
Y5660D1*
X2323Y23656D2*
Y25726D1*
X3112Y26514D1*
X4223Y23656D2*
Y23021D1*
X6922D1*
X11526D2*
Y22862D1*
X11844Y22545D1*
X12635D1*
X12637Y22547D1*
Y20481D2*
Y22547D1*
X30260Y24291D2*
Y24133D1*
X27717Y21590D1*
Y11269D1*
X26291Y9843D1*
X23751Y11113D2*
X20894D1*
X19782Y12225D1*
Y16988D1*
X17400Y19370D1*
X14543D1*
X13908Y20005D1*
Y22547D1*
X13907D1*
X13908Y24291D2*
Y22547D1*
X15177D2*
Y20482D1*
X15495Y20163D1*
X17877D1*
X20417Y17623D1*
Y13178D1*
X21211Y12384D1*
X26291D1*
Y12383D1*
X32800Y24291D2*
Y24132D1*
X28670Y20002D1*
Y12384D1*
X17400Y22545D2*
X16449D1*
X16447Y22547D1*
D37*
X14701Y7462D3*
X1365Y6668D3*
X17559Y17147D3*
X7081Y18636D3*
X8509Y14924D3*
X10786Y7408D3*
X13749Y8732D3*
X10891Y17941D3*
X10573Y14924D3*
X12608Y9208D3*
X11526Y10955D3*
X3905Y4604D3*
X6922Y23021D3*
X11526D3*
X12637Y20481D3*
X13908Y24291D3*
X28670Y12384D3*
X17400Y22545D3*
D17*
X7081Y9526D3*
Y7826D3*
Y15877D3*
Y17577D3*
Y21434D3*
Y19734D3*
D18*
X8622Y5557D3*
X6922D3*
D19*
X9303Y22703D3*
Y19903D3*
D18*
X10891Y16671D3*
X9191D3*
D20*
X4858Y2858D3*
X6758D3*
X11208D3*
X9308D3*
D21*
X14066Y26514D3*
D22*
X11526D3*
D23*
X22005Y26355D3*
D24*
X18505D3*
D25*
X27720Y24291D3*
D26*
Y26831D3*
X30260Y24291D3*
Y26831D3*
X32800Y24291D3*
Y26831D3*
X35340Y24291D3*
Y26831D3*
D21*
X5652Y26514D3*
D22*
X3112D3*
D27*
X26291Y7303D3*
Y9843D3*
Y12383D3*
Y14923D3*
X23751Y8573D3*
Y11113D3*
Y13653D3*
Y16193D3*
D28*
X32641Y6028D3*
Y17458D3*
D29*
X35691Y3868D3*
Y19618D3*
D30*
X4064Y13813D3*
Y13163D3*
Y12513D3*
Y11863D3*
Y11213D3*
D31*
X3839Y15713D3*
Y9313D3*
D32*
X1389Y16263D3*
Y8763D3*
D33*
Y13713D3*
Y11313D3*
D34*
X3588Y18258D3*
Y19758D3*
D18*
X7081Y13813D3*
X8781D3*
X7081Y11431D3*
X8781D3*
D17*
X16765Y13019D3*
Y14719D3*
D18*
X13590Y14924D3*
X11890D3*
X13431Y2858D3*
X15131D3*
D17*
X2635D3*
Y4558D3*
D20*
X4223Y23656D3*
X2323D3*
D35*
X12637Y17147D3*
X13907D3*
X15177D3*
X16447D3*
Y22547D3*
X15177D3*
X13907D3*
X12637D3*
D36*
X15336Y12860D3*
X14686D3*
X14036D3*
X13386D3*
X12736D3*
X12086D3*
X11436D3*
X10786D3*
Y5660D3*
X11436D3*
X12086D3*
X12736D3*
X13386D3*
X14036D3*
X14686D3*
X15336D3*
M02*
