G04 DipTrace Beta 2.3.5.2*
%INUSBtoRS485converter.GTO*%
%MOMM*%
%ADD10C,0.25*%
%ADD13C,0.3*%
%ADD16C,1.111*%
%ADD46C,0.157*%
%FSLAX53Y53*%
G04*
G71*
G90*
G75*
G01*
%LNTopSilk*%
%LPD*%
X8504Y21413D2*
D10*
X10102D1*
X8504Y21603D2*
X10102D1*
X8504D2*
Y21004D1*
X10102Y21603D2*
Y21004D1*
X3908Y2208D2*
Y3507D1*
X12158Y3508D2*
Y2209D1*
X15586Y25264D2*
X10006D1*
Y27764D1*
X15586D1*
Y25264D1*
X23455Y24955D2*
X17055D1*
Y27755D1*
X23455D1*
Y24955D1*
X26450Y28101D2*
X36610D1*
Y23021D1*
X26450D1*
Y28101D1*
X7172Y25264D2*
X1592D1*
Y27764D1*
X7172D1*
Y25264D1*
D13*
X5039Y13813D3*
X2939Y16313D2*
D10*
X2239D1*
X539D2*
X-1261D1*
Y8712D1*
X439D1*
X2839D2*
X2239D1*
X12042Y18547D2*
X17042D1*
X12042Y21147D2*
X17042D1*
Y18547D2*
Y21147D1*
X12042Y19347D2*
Y18547D1*
Y20347D2*
Y21147D1*
Y19347D2*
G03X12042Y20347I0J500D01*
G01*
X16261Y11660D2*
X9861D1*
X16261Y6860D2*
X9861D1*
Y11660D2*
Y6860D1*
X16261Y11660D2*
Y9860D1*
Y8660D2*
Y6860D1*
Y9860D2*
G03X16261Y8660I111J-600D01*
G01*
D16*
X25418Y24371D3*
X5335Y8762D2*
D46*
X5239Y8713D1*
X5141Y8616D1*
X5093Y8519D1*
Y8325D1*
X5141Y8227D1*
X5239Y8131D1*
X5335Y8081D1*
X5481Y8033D1*
X5725D1*
X5870Y8081D1*
X5968Y8131D1*
X6064Y8227D1*
X6114Y8325D1*
Y8519D1*
X6064Y8616D1*
X5968Y8713D1*
X5870Y8762D1*
X5288Y9075D2*
X5239Y9173D1*
X5094Y9319D1*
X6114D1*
X5335Y16594D2*
X5239Y16546D1*
X5141Y16448D1*
X5093Y16351D1*
Y16157D1*
X5141Y16059D1*
X5239Y15963D1*
X5335Y15913D1*
X5481Y15865D1*
X5725D1*
X5870Y15913D1*
X5968Y15963D1*
X6064Y16059D1*
X6114Y16157D1*
Y16351D1*
X6064Y16448D1*
X5968Y16546D1*
X5870Y16594D1*
X5336Y16957D2*
X5288D1*
X5190Y17005D1*
X5142Y17054D1*
X5094Y17151D1*
Y17346D1*
X5142Y17442D1*
X5190Y17491D1*
X5288Y17540D1*
X5385D1*
X5482Y17491D1*
X5627Y17394D1*
X6114Y16908D1*
Y17588D1*
X5335Y20451D2*
X5239Y20402D1*
X5141Y20305D1*
X5093Y20208D1*
Y20014D1*
X5141Y19916D1*
X5239Y19820D1*
X5335Y19770D1*
X5481Y19722D1*
X5725D1*
X5870Y19770D1*
X5968Y19820D1*
X6064Y19916D1*
X6114Y20014D1*
Y20208D1*
X6064Y20305D1*
X5968Y20402D1*
X5870Y20451D1*
X5094Y20862D2*
Y21396D1*
X5482Y21105D1*
Y21251D1*
X5531Y21347D1*
X5579Y21396D1*
X5725Y21445D1*
X5822D1*
X5968Y21396D1*
X6065Y21299D1*
X6114Y21153D1*
Y21007D1*
X6065Y20862D1*
X6016Y20814D1*
X5919Y20765D1*
X5127Y5400D2*
X5030Y5352D1*
X4932Y5254D1*
X4884Y5158D1*
Y4963D1*
X4932Y4866D1*
X5030Y4769D1*
X5127Y4720D1*
X5273Y4671D1*
X5516D1*
X5661Y4720D1*
X5759Y4769D1*
X5856Y4866D1*
X5905Y4963D1*
Y5158D1*
X5856Y5254D1*
X5759Y5352D1*
X5661Y5400D1*
X5905Y6200D2*
X4885D1*
X5565Y5714D1*
Y6443D1*
X10790Y21171D2*
X10694Y21122D1*
X10596Y21025D1*
X10548Y20928D1*
Y20734D1*
X10596Y20636D1*
X10694Y20539D1*
X10790Y20490D1*
X10936Y20442D1*
X11180D1*
X11325Y20490D1*
X11423Y20539D1*
X11519Y20636D1*
X11569Y20734D1*
Y20928D1*
X11519Y21025D1*
X11423Y21122D1*
X11325Y21171D1*
X10549Y22067D2*
Y21582D1*
X10986Y21534D1*
X10937Y21582D1*
X10888Y21728D1*
Y21873D1*
X10937Y22019D1*
X11034Y22117D1*
X11180Y22165D1*
X11277D1*
X11423Y22117D1*
X11520Y22019D1*
X11569Y21873D1*
Y21728D1*
X11520Y21582D1*
X11471Y21534D1*
X11374Y21484D1*
X9933Y18416D2*
X9885Y18512D1*
X9787Y18610D1*
X9690Y18658D1*
X9496D1*
X9398Y18610D1*
X9302Y18512D1*
X9252Y18416D1*
X9204Y18270D1*
Y18026D1*
X9252Y17881D1*
X9302Y17784D1*
X9398Y17687D1*
X9496Y17638D1*
X9690D1*
X9787Y17687D1*
X9885Y17784D1*
X9933Y17881D1*
X10830Y18512D2*
X10781Y18609D1*
X10635Y18657D1*
X10539D1*
X10393Y18609D1*
X10295Y18463D1*
X10247Y18220D1*
Y17978D1*
X10295Y17784D1*
X10393Y17686D1*
X10539Y17638D1*
X10587D1*
X10732Y17686D1*
X10830Y17784D1*
X10878Y17930D1*
Y17978D1*
X10830Y18124D1*
X10732Y18220D1*
X10587Y18269D1*
X10539D1*
X10393Y18220D1*
X10295Y18124D1*
X10247Y17978D1*
X5161Y1763D2*
Y742D1*
X4821Y1763D2*
X5501D1*
X5815D2*
X6496Y742D1*
Y1763D2*
X5815Y742D1*
X9570Y1277D2*
X10007D1*
X10153Y1327D1*
X10203Y1375D1*
X10251Y1471D1*
Y1569D1*
X10203Y1666D1*
X10153Y1715D1*
X10007Y1763D1*
X9570D1*
Y743D1*
X9911Y1277D2*
X10251Y743D1*
X10565Y1763D2*
X11245Y743D1*
Y1763D2*
X10565Y743D1*
X1425Y18438D2*
X2446D1*
Y19021D1*
X1620Y19335D2*
X1571Y19432D1*
X1426Y19578D1*
X2446D1*
X5529Y13194D2*
Y13631D1*
X5480Y13777D1*
X5431Y13826D1*
X5335Y13874D1*
X5237D1*
X5140Y13826D1*
X5091Y13777D1*
X5043Y13631D1*
Y13194D1*
X6064D1*
X5529Y13534D2*
X6064Y13874D1*
X5238Y14188D2*
X5189Y14286D1*
X5044Y14432D1*
X6064D1*
X5529Y10594D2*
Y11031D1*
X5480Y11177D1*
X5431Y11226D1*
X5335Y11274D1*
X5237D1*
X5140Y11226D1*
X5091Y11177D1*
X5043Y11031D1*
Y10594D1*
X6064D1*
X5529Y10934D2*
X6064Y11274D1*
X5286Y11637D2*
X5238D1*
X5140Y11686D1*
X5092Y11734D1*
X5044Y11832D1*
Y12026D1*
X5092Y12123D1*
X5140Y12171D1*
X5238Y12220D1*
X5335D1*
X5432Y12171D1*
X5577Y12074D1*
X6064Y11588D1*
Y12269D1*
X18096Y13032D2*
Y13468D1*
X18047Y13614D1*
X17998Y13664D1*
X17902Y13712D1*
X17804D1*
X17707Y13664D1*
X17658Y13614D1*
X17610Y13468D1*
Y13032D1*
X18631D1*
X18096Y13372D2*
X18631Y13712D1*
X17611Y14124D2*
Y14657D1*
X17999Y14366D1*
Y14512D1*
X18048Y14609D1*
X18096Y14657D1*
X18242Y14706D1*
X18339D1*
X18485Y14657D1*
X18582Y14560D1*
X18631Y14414D1*
Y14268D1*
X18582Y14124D1*
X18533Y14075D1*
X18436Y14026D1*
X10338Y14062D2*
Y14499D1*
X10289Y14645D1*
X10241Y14695D1*
X10144Y14743D1*
X10046D1*
X9950Y14695D1*
X9900Y14645D1*
X9852Y14499D1*
Y14062D1*
X10873D1*
X10338Y14403D2*
X10873Y14743D1*
Y15543D2*
X9853D1*
X10533Y15057D1*
Y15786D1*
X16512Y2021D2*
Y2457D1*
X16463Y2603D1*
X16414Y2653D1*
X16318Y2701D1*
X16220D1*
X16123Y2653D1*
X16074Y2603D1*
X16026Y2457D1*
Y2021D1*
X17047D1*
X16512Y2361D2*
X17047Y2701D1*
X16027Y3598D2*
Y3113D1*
X16464Y3064D1*
X16415Y3113D1*
X16366Y3259D1*
Y3403D1*
X16415Y3549D1*
X16512Y3647D1*
X16658Y3695D1*
X16755D1*
X16901Y3647D1*
X16998Y3549D1*
X17047Y3403D1*
Y3259D1*
X16998Y3113D1*
X16949Y3064D1*
X16852Y3015D1*
X1133Y2895D2*
Y3332D1*
X1084Y3478D1*
X1036Y3527D1*
X939Y3576D1*
X841D1*
X745Y3527D1*
X695Y3478D1*
X647Y3332D1*
Y2895D1*
X1668D1*
X1133Y3235D2*
X1668Y3576D1*
X793Y4472D2*
X697Y4424D1*
X648Y4278D1*
Y4181D1*
X697Y4035D1*
X843Y3938D1*
X1085Y3889D1*
X1328D1*
X1522Y3938D1*
X1620Y4035D1*
X1668Y4181D1*
Y4230D1*
X1620Y4375D1*
X1522Y4472D1*
X1376Y4521D1*
X1328D1*
X1182Y4472D1*
X1085Y4375D1*
X1037Y4230D1*
Y4181D1*
X1085Y4035D1*
X1182Y3938D1*
X1328Y3889D1*
X1939Y22075D2*
X2375D1*
X2521Y22125D1*
X2571Y22173D1*
X2619Y22269D1*
Y22367D1*
X2571Y22464D1*
X2521Y22513D1*
X2375Y22561D1*
X1939D1*
Y21541D1*
X2279Y22075D2*
X2619Y21541D1*
X2982Y22318D2*
Y22366D1*
X3031Y22464D1*
X3079Y22512D1*
X3177Y22560D1*
X3371D1*
X3467Y22512D1*
X3516Y22464D1*
X3565Y22366D1*
Y22269D1*
X3516Y22172D1*
X3419Y22027D1*
X2933Y21541D1*
X3613D1*
X3977Y22318D2*
Y22366D1*
X4025Y22464D1*
X4073Y22512D1*
X4171Y22560D1*
X4365D1*
X4462Y22512D1*
X4510Y22464D1*
X4560Y22366D1*
Y22269D1*
X4510Y22172D1*
X4414Y22027D1*
X3927Y21541D1*
X4608D1*
X17387Y19228D2*
X18116D1*
X18262Y19276D1*
X18358Y19374D1*
X18408Y19520D1*
Y19617D1*
X18358Y19763D1*
X18262Y19860D1*
X18116Y19909D1*
X17387D1*
X17582Y20222D2*
X17533Y20320D1*
X17388Y20466D1*
X18408D1*
X16606Y8423D2*
X17335D1*
X17481Y8471D1*
X17577Y8569D1*
X17627Y8715D1*
Y8811D1*
X17577Y8957D1*
X17481Y9055D1*
X17335Y9103D1*
X16606D1*
X16849Y9466D2*
X16801D1*
X16703Y9515D1*
X16655Y9563D1*
X16607Y9661D1*
Y9855D1*
X16655Y9951D1*
X16703Y10000D1*
X16801Y10049D1*
X16898D1*
X16995Y10000D1*
X17140Y9903D1*
X17627Y9417D1*
Y10097D1*
X19302Y28189D2*
X18914Y29210D1*
X18525Y28189D1*
X17774Y28263D2*
Y29138D1*
X18211Y28701D2*
X17336D1*
X22542Y28432D2*
X22591Y28335D1*
X22688Y28237D1*
X22785Y28189D1*
X22979D1*
X23077Y28237D1*
X23174Y28335D1*
X23223Y28432D1*
X23271Y28578D1*
Y28821D1*
X23223Y28966D1*
X23174Y29064D1*
X23077Y29161D1*
X22979Y29210D1*
X22785D1*
X22688Y29161D1*
X22591Y29064D1*
X22542Y28966D1*
Y28821D1*
X22785D1*
X22229Y28529D2*
Y29210D1*
Y28724D2*
X22083Y28578D1*
X21985Y28529D1*
X21840D1*
X21742Y28578D1*
X21694Y28724D1*
Y29210D1*
X20798Y28189D2*
Y29210D1*
Y28675D2*
X20894Y28578D1*
X20992Y28529D1*
X21138D1*
X21234Y28578D1*
X21332Y28675D1*
X21380Y28821D1*
Y28918D1*
X21332Y29064D1*
X21234Y29161D1*
X21138Y29210D1*
X20992D1*
X20894Y29161D1*
X20798Y29064D1*
X14063Y28882D2*
X13625D1*
X13480Y28834D1*
X13431Y28785D1*
X13382Y28688D1*
Y28542D1*
X13431Y28446D1*
X13480Y28396D1*
X13625Y28348D1*
X14063D1*
Y29369D1*
X13069Y28348D2*
X12825Y29369D1*
X12582Y28348D1*
X12340Y29369D1*
X12096Y28348D1*
X11782Y28834D2*
X11345D1*
X11199Y28785D1*
X11150Y28736D1*
X11102Y28640D1*
Y28542D1*
X11150Y28446D1*
X11199Y28396D1*
X11345Y28348D1*
X11782D1*
Y29369D1*
X11442Y28834D2*
X11102Y29369D1*
X8325Y28189D2*
Y29210D1*
X8665Y28189D2*
X7984D1*
X7670Y28821D2*
X7088D1*
Y28724D1*
X7136Y28626D1*
X7184Y28578D1*
X7282Y28529D1*
X7428D1*
X7524Y28578D1*
X7622Y28675D1*
X7670Y28821D1*
Y28918D1*
X7622Y29064D1*
X7524Y29161D1*
X7428Y29210D1*
X7282D1*
X7184Y29161D1*
X7088Y29064D1*
X6774Y28529D2*
Y29210D1*
Y28821D2*
X6724Y28675D1*
X6628Y28578D1*
X6530Y28529D1*
X6384D1*
X6070D2*
Y29210D1*
Y28724D2*
X5924Y28578D1*
X5827Y28529D1*
X5682D1*
X5584Y28578D1*
X5536Y28724D1*
Y29210D1*
Y28724D2*
X5390Y28578D1*
X5292Y28529D1*
X5147D1*
X5050Y28578D1*
X5000Y28724D1*
Y29210D1*
X4686Y28189D2*
X4638Y28237D1*
X4589Y28189D1*
X4638Y28140D1*
X4686Y28189D1*
X4638Y28529D2*
Y29210D1*
X4275Y28529D2*
Y29210D1*
Y28724D2*
X4129Y28578D1*
X4031Y28529D1*
X3886D1*
X3789Y28578D1*
X3740Y28724D1*
Y29210D1*
X2844Y28529D2*
Y29210D1*
Y28675D2*
X2940Y28578D1*
X3038Y28529D1*
X3183D1*
X3281Y28578D1*
X3377Y28675D1*
X3427Y28821D1*
Y28918D1*
X3377Y29064D1*
X3281Y29161D1*
X3183Y29210D1*
X3038D1*
X2940Y29161D1*
X2844Y29064D1*
X2384Y28189D2*
Y29016D1*
X2336Y29161D1*
X2238Y29210D1*
X2142D1*
X2530Y28529D2*
X2190D1*
X1828Y28821D2*
X1245D1*
Y28724D1*
X1293Y28626D1*
X1341Y28578D1*
X1439Y28529D1*
X1585D1*
X1682Y28578D1*
X1779Y28675D1*
X1828Y28821D1*
Y28918D1*
X1779Y29064D1*
X1682Y29161D1*
X1585Y29210D1*
X1439D1*
X1341Y29161D1*
X1245Y29064D1*
X29955Y22701D2*
X30345Y21680D1*
X30733Y22701D1*
X30587Y22360D2*
X30101D1*
X33273Y21680D2*
X32593D1*
X33273Y22701D1*
X32593D1*
X34926Y28749D2*
X34974Y28653D1*
X35072Y28555D1*
X35169Y28507D1*
X35363D1*
X35461Y28555D1*
X35557Y28653D1*
X35607Y28749D1*
X35655Y28895D1*
Y29139D1*
X35607Y29284D1*
X35557Y29381D1*
X35461Y29478D1*
X35363Y29527D1*
X35169D1*
X35072Y29478D1*
X34974Y29381D1*
X34926Y29284D1*
Y29139D1*
X35169D1*
X30574Y28507D2*
Y29527D1*
X30136D1*
X29990Y29478D1*
X29942Y29430D1*
X29894Y29333D1*
Y29187D1*
X29942Y29089D1*
X29990Y29041D1*
X30136Y28993D1*
X29990Y28943D1*
X29942Y28895D1*
X29894Y28799D1*
Y28701D1*
X29942Y28604D1*
X29990Y28555D1*
X30136Y28507D1*
X30574D1*
Y28993D2*
X30136D1*
X33115Y28507D2*
X32726Y28993D1*
Y29527D1*
X32338Y28507D2*
X32726Y28993D1*
X27597Y28580D2*
Y29455D1*
X28034Y29018D2*
X27159D1*
X35085Y21922D2*
X35133Y21826D1*
X35231Y21728D1*
X35327Y21680D1*
X35522D1*
X35619Y21728D1*
X35716Y21826D1*
X35765Y21922D1*
X35814Y22068D1*
Y22312D1*
X35765Y22457D1*
X35716Y22555D1*
X35619Y22651D1*
X35522Y22701D1*
X35327D1*
X35231Y22651D1*
X35133Y22555D1*
X35085Y22457D1*
Y22312D1*
X35327D1*
X27597Y21753D2*
Y22628D1*
X28034Y22191D2*
X27159D1*
M02*
