M48
METRIC,0000.00
T01C0.406
T02C0.9
T03C1.02
T04C1.1
T05C1.4
T06C1.6
T07C3.25
%
T01
X+001470Y+000746
X+001375Y+000873
X+001261Y+000921
X+001153Y+001095
X+001079Y+000741
X+000391Y+000460
X+000136Y+000667
X+000851Y+001492
X+001057Y+001492
X+001089Y+001794
X+001264Y+002048
X+001153Y+002302
X+001391Y+002429
X+001740Y+002254
X+001756Y+001715
X+000708Y+001864
X+000692Y+002302
X+002867Y+001238
T02
X+002629Y+000730
X+002629Y+000984
X+002629Y+001238
X+002629Y+001492
X+002375Y+001619
X+002375Y+001365
X+002375Y+001111
X+002375Y+000857
T03
X+001407Y+002651
X+001153Y+002651
X+000565Y+002651
X+000311Y+002651
T04
X+002772Y+002429
X+003026Y+002429
X+003026Y+002683
X+002772Y+002683
X+003280Y+002683
X+003534Y+002683
X+003534Y+002429
X+003280Y+002429
T05
X+002200Y+002636
X+001850Y+002636
T06
X+003569Y+000387
X+003569Y+001962
T07
X+003264Y+000603
X+003264Y+001746
T00
M30
