G04 DipTrace Beta 2.3.5.2*
%INUSBtoRS485converter.GTS*%
%MOMM*%
%ADD17R,1.0X1.1*%
%ADD18R,1.1X1.0*%
%ADD19R,1.8X1.6*%
%ADD20R,1.3X1.5*%
%ADD21R,1.62X1.62*%
%ADD22C,1.62*%
%ADD23R,2.3X2.3*%
%ADD24C,2.3*%
%ADD25R,1.7X1.7*%
%ADD26C,1.7*%
%ADD27C,1.5*%
%ADD28C,4.0*%
%ADD29C,2.5*%
%ADD30R,1.35X0.4*%
%ADD31R,1.4X1.6*%
%ADD32R,1.3X2.3*%
%ADD33R,1.9X1.7*%
%ADD34R,1.35X1.0*%
%ADD35R,0.6X2.0*%
%ADD36R,0.4X1.8*%
%FSLAX53Y53*%
G04*
G71*
G90*
G75*
G01*
%LNTopMask*%
%LPD*%
D17*
X7081Y9526D3*
Y7826D3*
Y15877D3*
Y17577D3*
Y21434D3*
Y19734D3*
D18*
X8622Y5557D3*
X6922D3*
D19*
X9303Y22703D3*
Y19903D3*
D18*
X10891Y16671D3*
X9191D3*
D20*
X4858Y2858D3*
X6758D3*
X11208D3*
X9308D3*
D21*
X14066Y26514D3*
D22*
X11526D3*
D23*
X22005Y26355D3*
D24*
X18505D3*
D25*
X27720Y24291D3*
D26*
Y26831D3*
X30260Y24291D3*
Y26831D3*
X32800Y24291D3*
Y26831D3*
X35340Y24291D3*
Y26831D3*
D21*
X5652Y26514D3*
D22*
X3112D3*
D27*
X26291Y7303D3*
Y9843D3*
Y12383D3*
Y14923D3*
X23751Y8573D3*
Y11113D3*
Y13653D3*
Y16193D3*
D28*
X32641Y6028D3*
Y17458D3*
D29*
X35691Y3868D3*
Y19618D3*
D30*
X4064Y13813D3*
Y13163D3*
Y12513D3*
Y11863D3*
Y11213D3*
D31*
X3839Y15713D3*
Y9313D3*
D32*
X1389Y16263D3*
Y8763D3*
D33*
Y13713D3*
Y11313D3*
D34*
X3588Y18258D3*
Y19758D3*
D18*
X7081Y13813D3*
X8781D3*
X7081Y11431D3*
X8781D3*
D17*
X16765Y13019D3*
Y14719D3*
D18*
X13590Y14924D3*
X11890D3*
X13431Y2858D3*
X15131D3*
D17*
X2635D3*
Y4558D3*
D20*
X4223Y23656D3*
X2323D3*
D35*
X12637Y17147D3*
X13907D3*
X15177D3*
X16447D3*
Y22547D3*
X15177D3*
X13907D3*
X12637D3*
D36*
X15336Y12860D3*
X14686D3*
X14036D3*
X13386D3*
X12736D3*
X12086D3*
X11436D3*
X10786D3*
Y5660D3*
X11436D3*
X12086D3*
X12736D3*
X13386D3*
X14036D3*
X14686D3*
X15336D3*
M02*
