G04 DipTrace Beta 2.3.5.2*
%INUSBtoRS485converter.GBO*%
%MOMM*%
%ADD46C,0.157*%
%ADD47C,0.196*%
%FSLAX53Y53*%
G04*
G71*
G90*
G75*
G01*
%LNBotSilk*%
%LPD*%
X30733Y23018D2*
D46*
X30343Y21997D1*
X29955Y23018D1*
X30101Y22678D2*
X30587D1*
X32593Y21997D2*
X33273D1*
X32593Y23018D1*
X33273D1*
X35655Y28432D2*
X35607Y28335D1*
X35509Y28237D1*
X35412Y28189D1*
X35218D1*
X35120Y28237D1*
X35024Y28335D1*
X34974Y28432D1*
X34926Y28578D1*
Y28821D1*
X34974Y28966D1*
X35024Y29064D1*
X35120Y29161D1*
X35218Y29210D1*
X35412D1*
X35509Y29161D1*
X35607Y29064D1*
X35655Y28966D1*
Y28821D1*
X35412D1*
X29894Y28189D2*
Y29210D1*
X30332D1*
X30478Y29161D1*
X30526Y29112D1*
X30574Y29016D1*
Y28870D1*
X30526Y28772D1*
X30478Y28724D1*
X30332Y28675D1*
X30478Y28626D1*
X30526Y28578D1*
X30574Y28481D1*
Y28383D1*
X30526Y28287D1*
X30478Y28237D1*
X30332Y28189D1*
X29894D1*
Y28675D2*
X30332D1*
X32338Y28189D2*
X32726Y28675D1*
Y29210D1*
X33115Y28189D2*
X32726Y28675D1*
X27596Y28263D2*
Y29138D1*
X27159Y28701D2*
X28034D1*
X35814Y22240D2*
X35765Y22143D1*
X35668Y22045D1*
X35571Y21997D1*
X35377D1*
X35279Y22045D1*
X35183Y22143D1*
X35133Y22240D1*
X35085Y22386D1*
Y22629D1*
X35133Y22774D1*
X35183Y22872D1*
X35279Y22969D1*
X35377Y23018D1*
X35571D1*
X35668Y22969D1*
X35765Y22872D1*
X35814Y22774D1*
Y22629D1*
X35571D1*
X27596Y22071D2*
Y22946D1*
X27159Y22509D2*
X28034D1*
X17336Y28030D2*
X17725Y29051D1*
X18114Y28030D1*
X18864Y28104D2*
Y28979D1*
X18427Y28542D2*
X19302D1*
X21526Y28273D2*
X21478Y28176D1*
X21380Y28079D1*
X21284Y28030D1*
X21090D1*
X20992Y28079D1*
X20895Y28176D1*
X20846Y28273D1*
X20798Y28419D1*
Y28663D1*
X20846Y28807D1*
X20895Y28905D1*
X20992Y29002D1*
X21090Y29051D1*
X21284D1*
X21380Y29002D1*
X21478Y28905D1*
X21526Y28807D1*
Y28663D1*
X21284D1*
X21840Y28371D2*
Y29051D1*
Y28565D2*
X21986Y28419D1*
X22084Y28371D1*
X22229D1*
X22326Y28419D1*
X22375Y28565D1*
Y29051D1*
X23271Y28030D2*
Y29051D1*
Y28517D2*
X23175Y28419D1*
X23077Y28371D1*
X22931D1*
X22834Y28419D1*
X22737Y28517D1*
X22688Y28663D1*
Y28759D1*
X22737Y28905D1*
X22834Y29002D1*
X22931Y29051D1*
X23077D1*
X23175Y29002D1*
X23271Y28905D1*
X11102Y28724D2*
X11540D1*
X11685Y28675D1*
X11734Y28626D1*
X11782Y28529D1*
Y28383D1*
X11734Y28287D1*
X11685Y28237D1*
X11540Y28189D1*
X11102D1*
Y29210D1*
X12096Y28189D2*
X12340Y29210D1*
X12582Y28189D1*
X12825Y29210D1*
X13069Y28189D1*
X13382Y28675D2*
X13819D1*
X13965Y28626D1*
X14015Y28578D1*
X14063Y28481D1*
Y28383D1*
X14015Y28287D1*
X13965Y28237D1*
X13819Y28189D1*
X13382D1*
Y29210D1*
X13723Y28675D2*
X14063Y29210D1*
X1585Y28030D2*
Y29051D1*
X1245Y28030D2*
X1925D1*
X2239Y28663D2*
X2822D1*
Y28565D1*
X2774Y28467D1*
X2726Y28419D1*
X2628Y28371D1*
X2482D1*
X2385Y28419D1*
X2288Y28517D1*
X2239Y28663D1*
Y28759D1*
X2288Y28905D1*
X2385Y29002D1*
X2482Y29051D1*
X2628D1*
X2726Y29002D1*
X2822Y28905D1*
X3136Y28371D2*
Y29051D1*
Y28663D2*
X3185Y28517D1*
X3282Y28419D1*
X3380Y28371D1*
X3526D1*
X3839D2*
Y29051D1*
Y28565D2*
X3985Y28419D1*
X4083Y28371D1*
X4228D1*
X4326Y28419D1*
X4374Y28565D1*
Y29051D1*
Y28565D2*
X4520Y28419D1*
X4618Y28371D1*
X4762D1*
X4860Y28419D1*
X4910Y28565D1*
Y29051D1*
X5223Y28030D2*
X5272Y28079D1*
X5321Y28030D1*
X5272Y27981D1*
X5223Y28030D1*
X5272Y28371D2*
Y29051D1*
X5635Y28371D2*
Y29051D1*
Y28565D2*
X5781Y28419D1*
X5878Y28371D1*
X6023D1*
X6121Y28419D1*
X6169Y28565D1*
Y29051D1*
X7066Y28371D2*
Y29051D1*
Y28517D2*
X6969Y28419D1*
X6872Y28371D1*
X6727D1*
X6629Y28419D1*
X6532Y28517D1*
X6483Y28663D1*
Y28759D1*
X6532Y28905D1*
X6629Y29002D1*
X6727Y29051D1*
X6872D1*
X6969Y29002D1*
X7066Y28905D1*
X7526Y28030D2*
Y28857D1*
X7574Y29002D1*
X7672Y29051D1*
X7768D1*
X7380Y28371D2*
X7720D1*
X8082Y28663D2*
X8665D1*
Y28565D1*
X8617Y28467D1*
X8568Y28419D1*
X8471Y28371D1*
X8325D1*
X8228Y28419D1*
X8130Y28517D1*
X8082Y28663D1*
Y28759D1*
X8130Y28905D1*
X8228Y29002D1*
X8325Y29051D1*
X8471D1*
X8568Y29002D1*
X8665Y28905D1*
X3704Y1602D2*
D47*
Y2514D1*
X3764Y2696D1*
X3886Y2817D1*
X4069Y2879D1*
X4189D1*
X4372Y2817D1*
X4494Y2696D1*
X4554Y2514D1*
Y1602D1*
X5797Y1785D2*
X5677Y1663D1*
X5494Y1602D1*
X5251D1*
X5069Y1663D1*
X4947Y1785D1*
Y1906D1*
X5008Y2028D1*
X5069Y2088D1*
X5189Y2149D1*
X5554Y2271D1*
X5677Y2331D1*
X5737Y2393D1*
X5797Y2514D1*
Y2696D1*
X5677Y2817D1*
X5494Y2879D1*
X5251D1*
X5069Y2817D1*
X4947Y2696D1*
X6189Y1602D2*
Y2879D1*
X6737D1*
X6919Y2817D1*
X6980Y2756D1*
X7040Y2636D1*
Y2453D1*
X6980Y2331D1*
X6919Y2271D1*
X6737Y2210D1*
X6919Y2149D1*
X6980Y2088D1*
X7040Y1967D1*
Y1845D1*
X6980Y1725D1*
X6919Y1663D1*
X6737Y1602D1*
X6189D1*
Y2210D2*
X6737D1*
X8849Y1602D2*
Y2636D1*
X8910Y2817D1*
X9032Y2879D1*
X9153D1*
X8667Y2028D2*
X9092D1*
X9848D2*
X9727Y2088D1*
X9605Y2210D1*
X9545Y2393D1*
Y2514D1*
X9605Y2696D1*
X9727Y2817D1*
X9848Y2879D1*
X10030D1*
X10153Y2817D1*
X10273Y2696D1*
X10335Y2514D1*
Y2393D1*
X10273Y2210D1*
X10153Y2088D1*
X10030Y2028D1*
X9848D1*
X11962Y2210D2*
X12508D1*
X12690Y2149D1*
X12752Y2088D1*
X12812Y1967D1*
Y1845D1*
X12752Y1725D1*
X12690Y1663D1*
X12508Y1602D1*
X11962D1*
Y2879D1*
X12387Y2210D2*
X12812Y2879D1*
X14055Y1785D2*
X13935Y1663D1*
X13752Y1602D1*
X13509D1*
X13327Y1663D1*
X13205Y1785D1*
Y1906D1*
X13266Y2028D1*
X13327Y2088D1*
X13447Y2149D1*
X13812Y2271D1*
X13935Y2331D1*
X13995Y2393D1*
X14055Y2514D1*
Y2696D1*
X13935Y2817D1*
X13752Y2879D1*
X13509D1*
X13327Y2817D1*
X13205Y2696D1*
X15055Y2879D2*
Y1604D1*
X14447Y2453D1*
X15359D1*
X16054Y1604D2*
X15873Y1664D1*
X15811Y1785D1*
Y1907D1*
X15873Y2028D1*
X15994Y2090D1*
X16236Y2150D1*
X16419Y2210D1*
X16540Y2332D1*
X16600Y2453D1*
Y2636D1*
X16540Y2756D1*
X16479Y2818D1*
X16297Y2879D1*
X16054D1*
X15873Y2818D1*
X15811Y2756D1*
X15751Y2636D1*
Y2453D1*
X15811Y2332D1*
X15933Y2210D1*
X16114Y2150D1*
X16357Y2090D1*
X16479Y2028D1*
X16540Y1907D1*
Y1785D1*
X16479Y1664D1*
X16297Y1604D1*
X16054D1*
X17721D2*
X17114D1*
X17054Y2150D1*
X17114Y2090D1*
X17297Y2028D1*
X17478D1*
X17660Y2090D1*
X17783Y2210D1*
X17843Y2393D1*
Y2514D1*
X17783Y2696D1*
X17660Y2818D1*
X17478Y2879D1*
X17297D1*
X17114Y2818D1*
X17054Y2756D1*
X16992Y2636D1*
X19470Y2241D2*
X20171D1*
X22588Y1602D2*
X21798D1*
Y2879D1*
Y2210D2*
X22284D1*
X22981Y2028D2*
Y2636D1*
X23041Y2817D1*
X23163Y2879D1*
X23346D1*
X23466Y2817D1*
X23649Y2636D1*
Y2028D2*
Y2879D1*
X24041Y1602D2*
Y2879D1*
X24433Y1602D2*
Y2879D1*
X26060Y1602D2*
Y2879D1*
X26485D1*
X26668Y2817D1*
X26790Y2696D1*
X26850Y2574D1*
X26911Y2393D1*
Y2088D1*
X26850Y1906D1*
X26790Y1785D1*
X26668Y1663D1*
X26485Y1602D1*
X26060D1*
X27303Y2028D2*
Y2636D1*
X27363Y2817D1*
X27485Y2879D1*
X27668D1*
X27788Y2817D1*
X27971Y2636D1*
Y2028D2*
Y2879D1*
X28363Y2028D2*
Y3304D1*
Y2210D2*
X28485Y2090D1*
X28606Y2028D1*
X28788D1*
X28911Y2090D1*
X29031Y2210D1*
X29093Y2393D1*
Y2515D1*
X29031Y2696D1*
X28911Y2818D1*
X28788Y2879D1*
X28606D1*
X28485Y2818D1*
X28363Y2696D1*
X29485Y1602D2*
Y2879D1*
X29877Y2393D2*
X30606D1*
Y2271D1*
X30546Y2149D1*
X30485Y2088D1*
X30363Y2028D1*
X30181D1*
X30060Y2088D1*
X29938Y2210D1*
X29877Y2393D1*
Y2514D1*
X29938Y2696D1*
X30060Y2817D1*
X30181Y2879D1*
X30363D1*
X30485Y2817D1*
X30606Y2696D1*
X30998Y2028D2*
X31666Y2879D1*
Y2028D2*
X30998Y2879D1*
M02*
